<svg width="141" height="29" viewBox="0 0 141 29" fill="none" xmlns="http://www.w3.org/2000/svg">
<path d="M0.384 28V2.8H5.064V28H0.384ZM22.3561 8.56C23.8921 8.56 25.2601 8.86 26.4601 9.46C27.6841 10.06 28.6441 10.984 29.3401 12.232C30.0361 13.456 30.3841 15.04 30.3841 16.984V28H25.8841V17.56C25.8841 15.856 25.4761 14.584 24.6601 13.744C23.8681 12.904 22.7521 12.484 21.3121 12.484C20.2561 12.484 19.3201 12.7 18.5041 13.132C17.6881 13.564 17.0521 14.212 16.5961 15.076C16.1641 15.916 15.9481 16.984 15.9481 18.28V28H11.4481V8.776H15.7321V13.96L14.9761 12.376C15.6481 11.152 16.6201 10.216 17.8921 9.568C19.1881 8.896 20.6761 8.56 22.3561 8.56ZM43.3286 28.252C41.2166 28.252 39.5846 27.712 38.4326 26.632C37.2806 25.528 36.7046 23.908 36.7046 21.772V4.528H41.2046V21.664C41.2046 22.576 41.4326 23.284 41.8886 23.788C42.3686 24.292 43.0286 24.544 43.8686 24.544C44.8766 24.544 45.7166 24.28 46.3886 23.752L47.6486 26.956C47.1206 27.388 46.4726 27.712 45.7046 27.928C44.9366 28.144 44.1446 28.252 43.3286 28.252ZM33.5366 12.52V8.92H46.3526V12.52H33.5366ZM59.7536 28.252C57.6176 28.252 55.7456 27.832 54.1376 26.992C52.5536 26.128 51.3176 24.952 50.4296 23.464C49.5656 21.976 49.1336 20.284 49.1336 18.388C49.1336 16.468 49.5536 14.776 50.3936 13.312C51.2576 11.824 52.4336 10.66 53.9216 9.82C55.4336 8.98 57.1496 8.56 59.0696 8.56C60.9416 8.56 62.6096 8.968 64.0736 9.784C65.5376 10.6 66.6896 11.752 67.5296 13.24C68.3696 14.728 68.7896 16.48 68.7896 18.496C68.7896 18.688 68.7776 18.904 68.7536 19.144C68.7536 19.384 68.7416 19.612 68.7176 19.828H52.6976V16.84H66.3416L64.5776 17.776C64.6016 16.672 64.3736 15.7 63.8936 14.86C63.4136 14.02 62.7536 13.36 61.9136 12.88C61.0976 12.4 60.1496 12.16 59.0696 12.16C57.9656 12.16 56.9936 12.4 56.1536 12.88C55.3376 13.36 54.6896 14.032 54.2096 14.896C53.7536 15.736 53.5256 16.732 53.5256 17.884V18.604C53.5256 19.756 53.7896 20.776 54.3176 21.664C54.8456 22.552 55.5896 23.236 56.5496 23.716C57.5096 24.196 58.6136 24.436 59.8616 24.436C60.9416 24.436 61.9136 24.268 62.7776 23.932C63.6416 23.596 64.4096 23.068 65.0816 22.348L67.4936 25.12C66.6296 26.128 65.5376 26.908 64.2176 27.46C62.9216 27.988 61.4336 28.252 59.7536 28.252ZM73.1122 28V8.776H77.3962V14.068L76.8922 12.52C77.4682 11.224 78.3682 10.24 79.5922 9.568C80.8402 8.896 82.3882 8.56 84.2362 8.56V12.844C84.0442 12.796 83.8642 12.772 83.6962 12.772C83.5282 12.748 83.3602 12.736 83.1922 12.736C81.4882 12.736 80.1322 13.24 79.1242 14.248C78.1162 15.232 77.6122 16.708 77.6122 18.676V28H73.1122ZM88.0536 28V8.776H92.5536V28H88.0536ZM90.3216 5.608C89.4816 5.608 88.7856 5.344 88.2336 4.816C87.7056 4.288 87.4416 3.652 87.4416 2.908C87.4416 2.14 87.7056 1.504 88.2336 0.999998C88.7856 0.471999 89.4816 0.207999 90.3216 0.207999C91.1616 0.207999 91.8456 0.459999 92.3736 0.963998C92.9256 1.444 93.2016 2.056 93.2016 2.8C93.2016 3.592 92.9376 4.264 92.4096 4.816C91.8816 5.344 91.1856 5.608 90.3216 5.608ZM107.1 28.252C105.132 28.252 103.38 27.832 101.844 26.992C100.308 26.128 99.0958 24.952 98.2078 23.464C97.3198 21.976 96.8758 20.284 96.8758 18.388C96.8758 16.468 97.3198 14.776 98.2078 13.312C99.0958 11.824 100.308 10.66 101.844 9.82C103.38 8.98 105.132 8.56 107.1 8.56C109.092 8.56 110.856 8.98 112.392 9.82C113.952 10.66 115.164 11.812 116.028 13.276C116.916 14.74 117.36 16.444 117.36 18.388C117.36 20.284 116.916 21.976 116.028 23.464C115.164 24.952 113.952 26.128 112.392 26.992C110.856 27.832 109.092 28.252 107.1 28.252ZM107.1 24.4C108.204 24.4 109.188 24.16 110.052 23.68C110.916 23.2 111.588 22.504 112.068 21.592C112.572 20.68 112.824 19.612 112.824 18.388C112.824 17.14 112.572 16.072 112.068 15.184C111.588 14.272 110.916 13.576 110.052 13.096C109.188 12.616 108.216 12.376 107.136 12.376C106.032 12.376 105.048 12.616 104.184 13.096C103.344 13.576 102.672 14.272 102.168 15.184C101.664 16.072 101.412 17.14 101.412 18.388C101.412 19.612 101.664 20.68 102.168 21.592C102.672 22.504 103.344 23.2 104.184 23.68C105.048 24.16 106.02 24.4 107.1 24.4ZM121.663 28V8.776H125.947V14.068L125.443 12.52C126.019 11.224 126.919 10.24 128.143 9.568C129.391 8.896 130.939 8.56 132.787 8.56V12.844C132.595 12.796 132.415 12.772 132.247 12.772C132.079 12.748 131.911 12.736 131.743 12.736C130.039 12.736 128.683 13.24 127.675 14.248C126.667 15.232 126.163 16.708 126.163 18.676V28H121.663ZM137.869 28.252C137.053 28.252 136.357 27.976 135.781 27.424C135.205 26.848 134.917 26.128 134.917 25.264C134.917 24.352 135.205 23.632 135.781 23.104C136.357 22.552 137.053 22.276 137.869 22.276C138.685 22.276 139.381 22.552 139.957 23.104C140.533 23.632 140.821 24.352 140.821 25.264C140.821 26.128 140.533 26.848 139.957 27.424C139.381 27.976 138.685 28.252 137.869 28.252Z" fill="white"/>
</svg>
